<svg width="512" height="512" viewBox="0 0 100 100" fill="none" xmlns="http://www.w3.org/2000/svg">
  <!-- Background -->
  <rect width="100" height="100" rx="20" fill="#0f172a"/>
  
  <!-- Morse code arc -->
  <circle cx="50" cy="8" r="2.5" fill="#22d3ee"/>
  <circle cx="56" cy="8.5" r="2.5" fill="#22d3ee"/>
  <circle cx="62" cy="10" r="2.5" fill="#22d3ee"/>
  <circle cx="68" cy="12" r="2.5" fill="#22d3ee"/>
  
  <line x1="78" y1="20" x2="82" y2="27" stroke="#22d3ee" stroke-width="3" stroke-linecap="round"/>
  <line x1="86" y1="34" x2="89" y2="42" stroke="#22d3ee" stroke-width="3" stroke-linecap="round"/>
  <line x1="91" y1="49" x2="91" y2="57" stroke="#22d3ee" stroke-width="3" stroke-linecap="round"/>
  
  <circle cx="89" cy="68" r="2.5" fill="#22d3ee"/>
  <line x1="87" y1="73" x2="84" y2="78" stroke="#22d3ee" stroke-width="3" stroke-linecap="round"/>
  <line x1="80" y1="82" x2="75" y2="85" stroke="#22d3ee" stroke-width="3" stroke-linecap="round"/>
  <circle cx="68" cy="88" r="2.5" fill="#22d3ee"/>
  
  <circle cx="56" cy="91" r="2.5" fill="#22d3ee"/>
  
  <!-- Person - Accessibility style -->
  <circle cx="50" cy="36" r="8" fill="#22d3ee"/>
  <path d="M32 42 C42 52, 58 52, 68 42" stroke="#22d3ee" stroke-width="4" stroke-linecap="round" fill="none"/>
  <line x1="50" y1="50" x2="50" y2="62" stroke="#22d3ee" stroke-width="4" stroke-linecap="round"/>
  <line x1="50" y1="62" x2="38" y2="76" stroke="#22d3ee" stroke-width="4" stroke-linecap="round"/>
  <line x1="50" y1="62" x2="62" y2="76" stroke="#22d3ee" stroke-width="4" stroke-linecap="round"/>
  
  <!-- Radio waves -->
  <g transform="rotate(45, 32, 42)">
    <path d="M28 38 Q25 42, 28 46" stroke="#22d3ee" stroke-width="1.5" fill="none" opacity="0.8"/>
    <path d="M25 36 Q21 42, 25 48" stroke="#22d3ee" stroke-width="1.5" fill="none" opacity="0.5"/>
    <path d="M22 34 Q17 42, 22 50" stroke="#22d3ee" stroke-width="1.5" fill="none" opacity="0.25"/>
  </g>
  
  <!-- Bluetooth -->
  <g transform="translate(72, 40) rotate(-30)" stroke="#22d3ee" stroke-width="1.5">
    <line x1="0" y1="-8" x2="0" y2="8"/>
    <line x1="0" y1="-8" x2="5" y2="-3"/>
    <line x1="5" y1="-3" x2="-4" y2="4"/>
    <line x1="0" y1="8" x2="5" y2="3"/>
    <line x1="5" y1="3" x2="-4" y2="-4"/>
  </g>
  
  <!-- Satellite -->
  <g transform="translate(22, 20) rotate(-25)" stroke="#22d3ee" stroke-width="1.5" fill="none">
    <rect x="-5" y="-4" width="10" height="8" rx="1"/>
    <line x1="-5" y1="0" x2="-9" y2="0"/>
    <rect x="-17" y="-4" width="8" height="8"/>
    <line x1="-13" y1="-4" x2="-13" y2="4" stroke-width="1"/>
    <line x1="5" y1="0" x2="9" y2="0"/>
    <rect x="9" y="-4" width="8" height="8"/>
    <line x1="13" y1="-4" x2="13" y2="4" stroke-width="1"/>
  </g>
</svg>
